<svg width="201" height="27" viewBox="0 0 201 27" fill="none" xmlns="http://www.w3.org/2000/svg">
<path d="M0.407469 26V0.799998H12.8275C15.6355 0.799998 18.1075 1.316 20.2435 2.348C22.3795 3.356 24.0475 4.796 25.2475 6.668C26.4475 8.54 27.0475 10.772 27.0475 13.364C27.0475 15.98 26.4475 18.236 25.2475 20.132C24.0475 22.004 22.3795 23.456 20.2435 24.488C18.1075 25.496 15.6355 26 12.8275 26H0.407469ZM8.90347 19.376H12.4675C13.6675 19.376 14.7115 19.148 15.5995 18.692C16.5115 18.236 17.2195 17.564 17.7235 16.676C18.2275 15.764 18.4795 14.66 18.4795 13.364C18.4795 12.092 18.2275 11.012 17.7235 10.124C17.2195 9.236 16.5115 8.564 15.5995 8.108C14.7115 7.652 13.6675 7.424 12.4675 7.424H8.90347V19.376ZM30.1497 26V0.799998H42.5697C45.3777 0.799998 47.8497 1.316 49.9857 2.348C52.1217 3.356 53.7897 4.796 54.9897 6.668C56.1897 8.54 56.7897 10.772 56.7897 13.364C56.7897 15.98 56.1897 18.236 54.9897 20.132C53.7897 22.004 52.1217 23.456 49.9857 24.488C47.8497 25.496 45.3777 26 42.5697 26H30.1497ZM38.6457 19.376H42.2097C43.4097 19.376 44.4537 19.148 45.3417 18.692C46.2537 18.236 46.9617 17.564 47.4657 16.676C47.9697 15.764 48.2217 14.66 48.2217 13.364C48.2217 12.092 47.9697 11.012 47.4657 10.124C46.9617 9.236 46.2537 8.564 45.3417 8.108C44.4537 7.652 43.4097 7.424 42.2097 7.424H38.6457V19.376ZM71.9518 26.576C68.0878 26.576 65.0758 25.532 62.9158 23.444C60.7558 21.356 59.6758 18.428 59.6758 14.66V0.799998H68.1718V14.408C68.1718 16.328 68.5198 17.696 69.2158 18.512C69.9118 19.304 70.8478 19.7 72.0238 19.7C73.2238 19.7 74.1598 19.304 74.8318 18.512C75.5278 17.696 75.8758 16.328 75.8758 14.408V0.799998H84.2278V14.66C84.2278 18.428 83.1478 21.356 80.9878 23.444C78.8278 25.532 75.8158 26.576 71.9518 26.576ZM95.7183 20.6L95.2503 11.276L104.754 0.799998H114.006L103.35 12.536L98.6343 17.36L95.7183 20.6ZM88.1223 26V0.799998H96.4743V26H88.1223ZM104.682 26L97.2663 16.208L102.774 10.376L114.51 26H104.682ZM115.65 26V0.799998H128.07C130.878 0.799998 133.35 1.316 135.486 2.348C137.622 3.356 139.29 4.796 140.49 6.668C141.69 8.54 142.29 10.772 142.29 13.364C142.29 15.98 141.69 18.236 140.49 20.132C139.29 22.004 137.622 23.456 135.486 24.488C133.35 25.496 130.878 26 128.07 26H115.65ZM124.146 19.376H127.71C128.91 19.376 129.954 19.148 130.842 18.692C131.754 18.236 132.462 17.564 132.966 16.676C133.47 15.764 133.722 14.66 133.722 13.364C133.722 12.092 133.47 11.012 132.966 10.124C132.462 9.236 131.754 8.564 130.842 8.108C129.954 7.652 128.91 7.424 127.71 7.424H124.146V19.376ZM188.939 26.576C186.923 26.576 185.051 26.264 183.323 25.64C181.619 24.992 180.131 24.08 178.859 22.904C177.611 21.728 176.639 20.336 175.943 18.728C175.247 17.12 174.899 15.344 174.899 13.4C174.899 11.456 175.247 9.68 175.943 8.072C176.639 6.464 177.611 5.072 178.859 3.896C180.131 2.72 181.619 1.82 183.323 1.196C185.051 0.547999 186.923 0.223999 188.939 0.223999C191.411 0.223999 193.595 0.655999 195.491 1.52C197.411 2.384 198.995 3.632 200.243 5.264L194.879 10.052C194.135 9.116 193.307 8.396 192.395 7.892C191.507 7.364 190.499 7.1 189.371 7.1C188.483 7.1 187.679 7.244 186.959 7.532C186.239 7.82 185.615 8.24 185.087 8.792C184.583 9.344 184.187 10.016 183.899 10.808C183.611 11.576 183.467 12.44 183.467 13.4C183.467 14.36 183.611 15.236 183.899 16.028C184.187 16.796 184.583 17.456 185.087 18.008C185.615 18.56 186.239 18.98 186.959 19.268C187.679 19.556 188.483 19.7 189.371 19.7C190.499 19.7 191.507 19.448 192.395 18.944C193.307 18.416 194.135 17.684 194.879 16.748L200.243 21.536C198.995 23.144 197.411 24.392 195.491 25.28C193.595 26.144 191.411 26.576 188.939 26.576Z" fill="black"/>
<path d="M158.604 26.576C156.564 26.576 154.668 26.252 152.916 25.604C151.188 24.956 149.688 24.044 148.416 22.868C147.144 21.668 146.148 20.264 145.428 18.656C144.732 17.048 144.384 15.296 144.384 13.4C144.384 11.48 144.732 9.728 145.428 8.144C146.148 6.536 147.144 5.144 148.416 3.968C149.688 2.768 151.188 1.844 152.916 1.196C154.668 0.547999 156.564 0.223999 158.604 0.223999C160.668 0.223999 162.564 0.547999 164.292 1.196C166.02 1.844 167.52 2.768 168.792 3.968C170.064 5.144 171.048 6.536 171.744 8.144C172.464 9.728 172.824 11.48 172.824 13.4C172.824 15.296 172.464 17.048 171.744 18.656C171.048 20.264 170.064 21.668 168.792 22.868C167.52 24.044 166.02 24.956 164.292 25.604C162.564 26.252 160.668 26.576 158.604 26.576ZM158.604 19.7C159.396 19.7 160.128 19.556 160.8 19.268C161.496 18.98 162.096 18.572 162.6 18.044C163.128 17.492 163.536 16.832 163.824 16.064C164.112 15.272 164.256 14.384 164.256 13.4C164.256 12.416 164.112 11.54 163.824 10.772C163.536 9.98 163.128 9.32 162.6 8.792C162.096 8.24 161.496 7.82 160.8 7.532C160.128 7.244 159.396 7.1 158.604 7.1C157.812 7.1 157.068 7.244 156.372 7.532C155.7 7.82 155.1 8.24 154.572 8.792C154.068 9.32 153.672 9.98 153.384 10.772C153.096 11.54 152.952 12.416 152.952 13.4C152.952 14.384 153.096 15.272 153.384 16.064C153.672 16.832 154.068 17.492 154.572 18.044C155.1 18.572 155.7 18.98 156.372 19.268C157.068 19.556 157.812 19.7 158.604 19.7Z" fill="#4356FF"/>
</svg>
