<svg width="147" height="18" viewBox="0 0 147 18" fill="none" xmlns="http://www.w3.org/2000/svg">
<path d="M0.471875 7.552H13.5439V8.624H0.471875V7.552ZM6.34388 8.112H7.67188V11.024H6.34388V8.112ZM1.89588 10.528H11.8799V15.248H10.5519V11.6H1.89588V10.528ZM7.43188 5.136H12.3759V6.208H7.43188V5.136ZM7.43188 1.312H12.2799V2.4H8.77588V5.52H7.43188V1.312ZM1.70388 1.312H6.58388V2.4H3.06388V5.52H1.70388V1.312ZM1.70388 5.136H2.50388C2.97321 5.136 3.43721 5.12533 3.89587 5.104C4.36521 5.08267 4.83454 5.04533 5.30388 4.992C5.77321 4.93867 6.25854 4.85867 6.75988 4.752L6.88788 5.808C6.36521 5.92533 5.85854 6.01067 5.36788 6.064C4.88788 6.11733 4.41321 6.15467 3.94388 6.176C3.47454 6.19733 2.99454 6.208 2.50388 6.208H1.70388V5.136ZM15.5906 17.04L15.2386 16.176C15.74 15.952 16.1346 15.648 16.4226 15.264C16.7106 14.88 16.8493 14.4427 16.8386 13.952L16.6786 12.64L17.3986 13.712C17.292 13.8293 17.1746 13.9147 17.0466 13.968C16.9293 14.0107 16.8013 14.032 16.6626 14.032C16.3746 14.032 16.124 13.9413 15.9106 13.76C15.6973 13.5787 15.5906 13.328 15.5906 13.008C15.5906 12.688 15.6973 12.4373 15.9106 12.256C16.1346 12.0747 16.396 11.984 16.6946 11.984C17.0786 11.984 17.3773 12.1387 17.5906 12.448C17.8146 12.7467 17.9266 13.1627 17.9266 13.696C17.9266 14.464 17.7133 15.136 17.2866 15.712C16.8706 16.288 16.3053 16.7307 15.5906 17.04ZM24.9019 5.632H34.8219V6.72H24.9019V5.632ZM23.2219 8.88H36.3419V9.984H23.2219V8.88ZM29.0619 9.472H30.3899V15.248H29.0619V9.472ZM24.9019 1.504H26.2299V6.16H24.9019V1.504ZM37.9406 12.32H51.0606V13.424H37.9406V12.32ZM39.5406 1.872H49.4286V6.272H40.8846V9.152H39.5726V5.2H48.1166V2.96H39.5406V1.872ZM39.5726 8.608H49.7646V9.68H39.5726V8.608ZM59.6034 3.312H63.6354V4.416H59.6034V3.312ZM59.6034 6.416H63.6674V7.504H59.6034V6.416ZM53.3314 2.032H59.9234V8.8H53.3314V2.032ZM58.6274 3.104H54.6274V7.744H58.6274V3.104ZM63.2354 0.783999H64.5634V11.344H63.2354V0.783999ZM55.2674 13.84H64.8994V14.928H55.2674V13.84ZM55.2674 10.4H56.5954V14.336H55.2674V10.4ZM78.1883 5.68H82.2043V6.768H78.1883V5.68ZM74.6843 2.016H75.7723V4.608C75.7723 5.408 75.6709 6.19733 75.4683 6.976C75.2763 7.75467 74.9989 8.48 74.6363 9.152C74.2736 9.824 73.8469 10.4213 73.3563 10.944C72.8763 11.4667 72.3483 11.8827 71.7723 12.192L70.9403 11.12C71.4736 10.864 71.9643 10.5067 72.4123 10.048C72.8709 9.58933 73.2709 9.06667 73.6123 8.48C73.9536 7.88267 74.2149 7.25867 74.3963 6.608C74.5883 5.94667 74.6843 5.28 74.6843 4.608V2.016ZM74.9563 2.016H76.0283V4.608C76.0283 5.25867 76.1189 5.904 76.3003 6.544C76.4923 7.184 76.7589 7.78667 77.1003 8.352C77.4416 8.90667 77.8363 9.40267 78.2843 9.84C78.7429 10.2773 79.2336 10.6187 79.7563 10.864L78.9563 11.936C78.3803 11.6373 77.8469 11.2373 77.3563 10.736C76.8656 10.2347 76.4389 9.65867 76.0763 9.008C75.7243 8.35733 75.4469 7.65867 75.2443 6.912C75.0523 6.16533 74.9563 5.39733 74.9563 4.608V2.016ZM81.5483 0.768H82.8603V15.264H81.5483V0.768ZM92.571 3.12H96.747V4.192H92.571V3.12ZM92.571 5.984H96.779V7.072H92.571V5.984ZM96.251 0.768H97.579V9.328H96.251V0.768ZM86.347 1.872H92.939V8.304H86.347V1.872ZM91.643 2.944H87.643V7.232H91.643V2.944ZM92.811 9.76C94.3043 9.76 95.4777 10 96.331 10.48C97.195 10.96 97.627 11.632 97.627 12.496C97.627 13.36 97.195 14.0267 96.331 14.496C95.4777 14.976 94.3043 15.216 92.811 15.216C91.3177 15.216 90.139 14.976 89.275 14.496C88.4217 14.0267 87.995 13.36 87.995 12.496C87.995 11.632 88.4217 10.96 89.275 10.48C90.139 10 91.3177 9.76 92.811 9.76ZM92.811 10.8C92.0857 10.8 91.4617 10.8693 90.939 11.008C90.4163 11.136 90.011 11.328 89.723 11.584C89.4457 11.8293 89.307 12.1333 89.307 12.496C89.307 12.8373 89.4457 13.136 89.723 13.392C90.011 13.6373 90.4163 13.8293 90.939 13.968C91.4617 14.1067 92.0857 14.176 92.811 14.176C93.547 14.176 94.171 14.1067 94.683 13.968C95.2057 13.8293 95.6057 13.6373 95.883 13.392C96.171 13.136 96.315 12.8373 96.315 12.496C96.315 12.1333 96.171 11.8293 95.883 11.584C95.6057 11.328 95.2057 11.136 94.683 11.008C94.171 10.8693 93.547 10.8 92.811 10.8ZM110.426 0.768H111.754V15.248H110.426V0.768ZM111.322 6.736H113.914V7.84H111.322V6.736ZM103.498 2.336H104.73C104.73 3.2 104.676 4.05867 104.57 4.912C104.463 5.76533 104.282 6.60267 104.026 7.424C103.78 8.24533 103.439 9.04 103.002 9.808C102.575 10.5653 102.036 11.2907 101.386 11.984L100.33 11.232C100.916 10.6133 101.412 9.96267 101.818 9.28C102.234 8.59733 102.564 7.888 102.81 7.152C103.055 6.416 103.231 5.65867 103.338 4.88C103.444 4.09067 103.498 3.29067 103.498 2.48V2.336ZM100.794 2.336H103.994V3.44H100.794V2.336ZM107.45 2.336H108.682C108.682 3.21067 108.639 4.10667 108.554 5.024C108.479 5.94133 108.324 6.85867 108.09 7.776C107.866 8.69333 107.546 9.58933 107.13 10.464C106.724 11.3387 106.186 12.1653 105.514 12.944L104.442 12.208C105.06 11.504 105.562 10.7573 105.946 9.968C106.34 9.17867 106.644 8.368 106.858 7.536C107.071 6.69333 107.22 5.84533 107.306 4.992C107.402 4.13867 107.45 3.296 107.45 2.464V2.336ZM105.194 2.336H107.978V3.44H105.194V2.336ZM118.937 2.848H120.025V5.184C120.025 5.952 119.918 6.70933 119.705 7.456C119.491 8.192 119.193 8.89067 118.809 9.552C118.435 10.2027 117.998 10.7787 117.497 11.28C116.995 11.7813 116.457 12.176 115.881 12.464L115.113 11.408C115.635 11.152 116.126 10.8053 116.585 10.368C117.054 9.93067 117.465 9.42933 117.817 8.864C118.169 8.29867 118.441 7.70133 118.633 7.072C118.835 6.44267 118.937 5.81333 118.937 5.184V2.848ZM119.209 2.848H120.281V5.184C120.281 5.792 120.377 6.4 120.569 7.008C120.771 7.60533 121.049 8.17067 121.401 8.704C121.763 9.22667 122.174 9.69067 122.633 10.096C123.102 10.5013 123.603 10.8213 124.137 11.056L123.401 12.112C122.814 11.8347 122.265 11.4613 121.753 10.992C121.241 10.5227 120.793 9.984 120.409 9.376C120.035 8.75733 119.742 8.096 119.529 7.392C119.315 6.67733 119.209 5.94133 119.209 5.184V2.848ZM115.577 2.256H123.657V3.36H115.577V2.256ZM125.625 0.768H126.953V15.248H125.625V0.768ZM143.569 0.768H144.897V9.44H143.569V0.768ZM144.273 4.64H146.769V5.76H144.273V4.64ZM135.329 10.112H144.897V15.264H143.569V11.184H135.329V10.112ZM133.937 7.232H134.577C135.004 7.232 135.489 7.216 136.033 7.184C136.577 7.14133 137.159 7.05067 137.777 6.912L137.921 8.032C137.473 8.128 137.052 8.19733 136.657 8.24C136.263 8.28267 135.889 8.30933 135.537 8.32C135.196 8.33067 134.876 8.336 134.577 8.336H133.937V7.232ZM133.937 1.92H137.537V3.008H135.201V7.792H133.937V1.92ZM138.385 7.232H139.105C139.575 7.232 140.007 7.22667 140.401 7.216C140.796 7.19467 141.18 7.16267 141.553 7.12C141.927 7.07733 142.305 7.008 142.689 6.912L142.833 8.016C142.417 8.112 142.017 8.18133 141.633 8.224C141.249 8.26667 140.855 8.29867 140.449 8.32C140.044 8.33067 139.596 8.336 139.105 8.336H138.385V7.232ZM138.385 1.92H142.209V3.008H139.665V7.744H138.385V1.92Z" fill="black"/>
</svg>
