<svg width="193" height="208" viewBox="0 0 193 208" fill="none" xmlns="http://www.w3.org/2000/svg">
<rect y="6" width="193" height="196" rx="20" fill="white"/>
<g filter="url(#filter0_d_472_4599)">
<path d="M82.4545 151H48.0455V57.9091H82.4091C110.818 57.9091 128.409 75.3636 128.409 104.409C128.409 133.5 110.818 151 82.4545 151ZM70.5455 131.818H81.5909C97.2727 131.818 105.864 124.545 105.864 104.409C105.864 84.3636 97.2727 77.0909 81.2727 77.0909H70.5455V131.818ZM148.17 152.318C141.625 152.318 136.261 147.045 136.352 140.5C136.261 134.045 141.625 128.818 148.17 128.818C154.398 128.818 159.898 134.045 159.989 140.5C159.898 147.045 154.398 152.318 148.17 152.318Z" fill="url(#paint0_linear_472_4599)"/>
</g>
<defs>
<filter id="filter0_d_472_4599" x="44.0454" y="57.9092" width="119.943" height="102.409" filterUnits="userSpaceOnUse" color-interpolation-filters="sRGB">
<feFlood flood-opacity="0" result="BackgroundImageFix"/>
<feColorMatrix in="SourceAlpha" type="matrix" values="0 0 0 0 0 0 0 0 0 0 0 0 0 0 0 0 0 0 127 0" result="hardAlpha"/>
<feOffset dy="4"/>
<feGaussianBlur stdDeviation="2"/>
<feComposite in2="hardAlpha" operator="out"/>
<feColorMatrix type="matrix" values="0 0 0 0 0 0 0 0 0 0 0 0 0 0 0 0 0 0 0.25 0"/>
<feBlend mode="normal" in2="BackgroundImageFix" result="effect1_dropShadow_472_4599"/>
<feBlend mode="normal" in="SourceGraphic" in2="effect1_dropShadow_472_4599" result="shape"/>
</filter>
<linearGradient id="paint0_linear_472_4599" x1="106.5" y1="0" x2="106.5" y2="208" gradientUnits="userSpaceOnUse">
<stop stop-color="#A4EEFF"/>
<stop offset="1" stop-color="#B0ACED"/>
</linearGradient>
</defs>
</svg>
