<svg width="23" height="23" viewBox="0 0 23 23" fill="none" xmlns="http://www.w3.org/2000/svg">
<path d="M12.3215 1.64282H5.33934C4.7947 1.64282 4.27236 1.85918 3.88724 2.2443C3.50212 2.62942 3.28577 3.15175 3.28577 3.69639V19.3035C3.28577 19.8482 3.50212 20.3705 3.88724 20.7556C4.27236 21.1408 4.7947 21.3571 5.33934 21.3571H17.6608C17.9304 21.3571 18.1975 21.304 18.4466 21.2008C18.6958 21.0976 18.9222 20.9463 19.1129 20.7556C19.3036 20.5649 19.4548 20.3386 19.558 20.0894C19.6612 19.8403 19.7143 19.5732 19.7143 19.3035V9.03568L13.9643 7.39282L12.3215 1.64282Z" fill="url(#paint0_linear_264_6194)"/>
<path d="M12.3215 1.64282H5.33934C4.7947 1.64282 4.27236 1.85918 3.88724 2.2443C3.50212 2.62942 3.28577 3.15175 3.28577 3.69639V19.3035C3.28577 19.8482 3.50212 20.3705 3.88724 20.7556C4.27236 21.1408 4.7947 21.3571 5.33934 21.3571H17.6608C17.9304 21.3571 18.1975 21.304 18.4466 21.2008C18.6958 21.0976 18.9222 20.9463 19.1129 20.7556C19.3036 20.5649 19.4548 20.3386 19.558 20.0894C19.6612 19.8403 19.7143 19.5732 19.7143 19.3035V9.03568L13.9643 7.39282L12.3215 1.64282Z" fill="url(#paint1_radial_264_6194)" fill-opacity="0.5"/>
<path d="M12.3215 1.64282H5.33934C4.7947 1.64282 4.27236 1.85918 3.88724 2.2443C3.50212 2.62942 3.28577 3.15175 3.28577 3.69639V19.3035C3.28577 19.8482 3.50212 20.3705 3.88724 20.7556C4.27236 21.1408 4.7947 21.3571 5.33934 21.3571H17.6608C17.9304 21.3571 18.1975 21.304 18.4466 21.2008C18.6958 21.0976 18.9222 20.9463 19.1129 20.7556C19.3036 20.5649 19.4548 20.3386 19.558 20.0894C19.6612 19.8403 19.7143 19.5732 19.7143 19.3035V9.03568L13.9643 7.39282L12.3215 1.64282Z" fill="url(#paint2_radial_264_6194)" fill-opacity="0.3"/>
<path d="M12.3215 7.80354V1.64282L19.7144 9.03568H13.5537C13.2269 9.03568 12.9135 8.90586 12.6824 8.67479C12.4513 8.44372 12.3215 8.13032 12.3215 7.80354Z" fill="url(#paint3_linear_264_6194)"/>
<path d="M12.3215 7.80354V1.64282L19.7144 9.03568H13.5537C13.2269 9.03568 12.9135 8.90586 12.6824 8.67479C12.4513 8.44372 12.3215 8.13032 12.3215 7.80354Z" fill="url(#paint4_linear_264_6194)"/>
<defs>
<linearGradient id="paint0_linear_264_6194" x1="14.7858" y1="1.64282" x2="15.9259" y2="16.9198" gradientUnits="userSpaceOnUse">
<stop stop-color="#6CE0FF"/>
<stop offset="1" stop-color="#4894FE"/>
</linearGradient>
<radialGradient id="paint1_radial_264_6194" cx="0" cy="0" r="1" gradientUnits="userSpaceOnUse" gradientTransform="translate(20.3996 2.25874) rotate(133.966) scale(13.4098 7.9265)">
<stop offset="0.362" stop-color="#4A43CB"/>
<stop offset="1" stop-color="#4A43CB" stop-opacity="0"/>
</radialGradient>
<radialGradient id="paint2_radial_264_6194" cx="0" cy="0" r="1" gradientUnits="userSpaceOnUse" gradientTransform="translate(20.3996 2.25874) rotate(133.966) scale(13.4098 7.9265)">
<stop offset="0.362" stop-color="#4A43CB"/>
<stop offset="1" stop-color="#4A43CB" stop-opacity="0"/>
</radialGradient>
<linearGradient id="paint3_linear_264_6194" x1="16.018" y1="1.64282" x2="16.018" y2="9.03568" gradientUnits="userSpaceOnUse">
<stop stop-color="#D9D9D9"/>
<stop offset="1" stop-color="#737373"/>
</linearGradient>
<linearGradient id="paint4_linear_264_6194" x1="16.0056" y1="4.72318" x2="14.1574" y2="7.80354" gradientUnits="userSpaceOnUse">
<stop stop-color="#9FF0F9"/>
<stop offset="1" stop-color="#B3E0FF"/>
</linearGradient>
</defs>
</svg>
