<svg width="25" height="25" viewBox="0 0 25 25" fill="none" xmlns="http://www.w3.org/2000/svg">
<path d="M14.2062 4.12192C14.0367 3.81872 13.7893 3.56623 13.4897 3.39047C13.19 3.21472 12.8489 3.12207 12.5016 3.12207C12.1542 3.12207 11.8131 3.21472 11.5134 3.39047C11.2138 3.56623 10.9664 3.81872 10.7969 4.12192L3.3703 17.4063C3.20418 17.7034 3.1186 18.0388 3.12205 18.3792C3.1255 18.7196 3.21786 19.0532 3.38998 19.3469C3.5621 19.6406 3.80799 19.8842 4.10328 20.0536C4.39857 20.223 4.73301 20.3123 5.07343 20.3125H19.9234C20.264 20.3125 20.5986 20.2235 20.8941 20.0542C21.1896 19.8849 21.4357 19.6413 21.608 19.3476C21.7803 19.0538 21.8728 18.7201 21.8764 18.3796C21.8799 18.0391 21.7943 17.7035 21.6281 17.4063L14.2062 4.12192Z" fill="url(#paint0_linear_264_6213)"/>
<path d="M13.6719 16.0156C13.6719 16.3264 13.5484 16.6245 13.3286 16.8443C13.1089 17.064 12.8108 17.1875 12.5 17.1875C12.1892 17.1875 11.8911 17.064 11.6714 16.8443C11.4516 16.6245 11.3281 16.3264 11.3281 16.0156C11.3281 15.7048 11.4516 15.4068 11.6714 15.187C11.8911 14.9672 12.1892 14.8438 12.5 14.8438C12.8108 14.8438 13.1089 14.9672 13.3286 15.187C13.5484 15.4068 13.6719 15.7048 13.6719 16.0156ZM11.7188 12.5V8.59375C11.7188 8.38655 11.8011 8.18784 11.9476 8.04132C12.0941 7.89481 12.2928 7.8125 12.5 7.8125C12.7072 7.8125 12.9059 7.89481 13.0524 8.04132C13.1989 8.18784 13.2812 8.38655 13.2812 8.59375V12.5C13.2812 12.7072 13.1989 12.9059 13.0524 13.0524C12.9059 13.1989 12.7072 13.2812 12.5 13.2812C12.2928 13.2812 12.0941 13.1989 11.9476 13.0524C11.8011 12.9059 11.7188 12.7072 11.7188 12.5Z" fill="url(#paint1_linear_264_6213)"/>
<defs>
<linearGradient id="paint0_linear_264_6213" x1="6.04999" y1="0.43598" x2="16.7578" y2="22.6954" gradientUnits="userSpaceOnUse">
<stop stop-color="#FFCD0F"/>
<stop offset="1" stop-color="#FE8401"/>
</linearGradient>
<linearGradient id="paint1_linear_264_6213" x1="9.375" y1="7.8125" x2="13.2281" y2="18.0859" gradientUnits="userSpaceOnUse">
<stop stop-color="#4A4A4A"/>
<stop offset="1" stop-color="#212121"/>
</linearGradient>
</defs>
</svg>
