<svg width="28" height="28" viewBox="0 0 28 28" fill="none" xmlns="http://www.w3.org/2000/svg">
<path d="M3.47105 23.92C4.78105 25.3 6.81105 26 9.50105 26C12.1911 26 14.2211 25.3 15.531 23.92C17.0531 22.31 17.004 20.367 17.001 20.236V20.23C17.001 19 16.001 18 14.771 18H4.23105C3.00105 18 2.00105 19 2.00105 20.19V20.203C1.99705 20.393 1.95905 22.32 3.47105 23.92Z" fill="url(#paint0_linear_1140_10278)"/>
<path d="M3.47105 23.92C4.78105 25.3 6.81105 26 9.50105 26C12.1911 26 14.2211 25.3 15.531 23.92C17.0531 22.31 17.004 20.367 17.001 20.236V20.23C17.001 19 16.001 18 14.771 18H4.23105C3.00105 18 2.00105 19 2.00105 20.19V20.203C1.99705 20.393 1.95905 22.32 3.47105 23.92Z" fill="url(#paint1_linear_1140_10278)"/>
<path d="M9.5 16.5C8.37364 16.4974 7.29417 16.0487 6.49771 15.2523C5.70126 14.4558 5.25264 13.3764 5.25 12.25C5.25264 11.1236 5.70126 10.0442 6.49771 9.24771C7.29417 8.45126 8.37364 8.00264 9.5 8C10.6264 8.00264 11.7058 8.45126 12.5023 9.24771C13.2987 10.0442 13.7474 11.1236 13.75 12.25C13.7474 13.3764 13.2987 14.4558 12.5023 15.2523C11.7058 16.0487 10.6264 16.4974 9.5 16.5Z" fill="url(#paint2_linear_1140_10278)"/>
<path d="M17.75 14C17.62 14 17.48 13.98 17.35 13.94C17.1013 13.856 16.8854 13.6959 16.7328 13.4823C16.5803 13.2687 16.4988 13.0125 16.5 12.75V10.99C15.1 10.86 14 9.68 14 8.25V4.75C14 3.23 15.23 2 16.75 2H23.25C24.77 2 26 3.23 26 4.75V8.25C26 9.77 24.77 11 23.25 11H20.63L18.75 13.5C18.51 13.82 18.14 14 17.75 14Z" fill="url(#paint3_radial_1140_10278)"/>
<defs>
<linearGradient id="paint0_linear_1140_10278" x1="5.56805" y1="19.064" x2="8.29105" y2="27.218" gradientUnits="userSpaceOnUse">
<stop offset="0.125" stop-color="#9C6CFE"/>
<stop offset="1" stop-color="#7A41DC"/>
</linearGradient>
<linearGradient id="paint1_linear_1140_10278" x1="9.50105" y1="17.048" x2="13.326" y2="30.448" gradientUnits="userSpaceOnUse">
<stop stop-color="#885EDB" stop-opacity="0"/>
<stop offset="1" stop-color="#E362F8"/>
</linearGradient>
<linearGradient id="paint2_linear_1140_10278" x1="7.271" y1="9.13" x2="11.603" y2="16.047" gradientUnits="userSpaceOnUse">
<stop offset="0.125" stop-color="#9C6CFE"/>
<stop offset="1" stop-color="#7A41DC"/>
</linearGradient>
<radialGradient id="paint3_radial_1140_10278" cx="0" cy="0" r="1" gradientUnits="userSpaceOnUse" gradientTransform="translate(11.2304 -1.69237) rotate(49.565) scale(22.1933 39.9777)">
<stop stop-color="#FAB500"/>
<stop offset="0.535" stop-color="#FE8401"/>
<stop offset="1" stop-color="#FB5937"/>
</radialGradient>
</defs>
</svg>
