<svg width="28" height="28" viewBox="0 0 28 28" fill="none" xmlns="http://www.w3.org/2000/svg">
<path d="M21.5 23C20.909 23 20.3237 22.8836 19.7777 22.6574C19.2317 22.4312 18.7355 22.0996 18.3177 21.6816C17.8998 21.2637 17.5683 20.7675 17.3423 20.2214C17.1162 19.6753 16.9999 19.09 17 18.499V12.75C17 11.784 17.784 11 18.75 11H24.25C25.216 11 26 11.784 26 12.75V18.5C26 19.6935 25.5259 20.8381 24.682 21.682C23.8381 22.5259 22.6935 23 21.5 23Z" fill="url(#paint0_linear_1140_10284)"/>
<path d="M21.5 23C20.909 23 20.3237 22.8836 19.7777 22.6574C19.2317 22.4312 18.7355 22.0996 18.3177 21.6816C17.8998 21.2637 17.5683 20.7675 17.3423 20.2214C17.1162 19.6753 16.9999 19.09 17 18.499V12.75C17 11.784 17.784 11 18.75 11H24.25C25.216 11 26 11.784 26 12.75V18.5C26 19.6935 25.5259 20.8381 24.682 21.682C23.8381 22.5259 22.6935 23 21.5 23Z" fill="url(#paint1_radial_1140_10284)" fill-opacity="0.5"/>
<path d="M6.5 23C5.90897 23 5.32372 22.8836 4.77769 22.6574C4.23166 22.4312 3.73554 22.0996 3.31767 21.6816C2.89979 21.2637 2.56834 20.7675 2.34226 20.2214C2.11617 19.6753 1.99987 19.09 2 18.499V12.75C2 11.784 2.784 11 3.75 11H9.25C10.216 11 11 11.784 11 12.75V18.5C11 19.6935 10.5259 20.8381 9.68198 21.682C8.83807 22.5259 7.69347 23 6.5 23Z" fill="url(#paint2_linear_1140_10284)"/>
<path d="M6.5 23C5.90897 23 5.32372 22.8836 4.77769 22.6574C4.23166 22.4312 3.73554 22.0996 3.31767 21.6816C2.89979 21.2637 2.56834 20.7675 2.34226 20.2214C2.11617 19.6753 1.99987 19.09 2 18.499V12.75C2 11.784 2.784 11 3.75 11H9.25C10.216 11 11 11.784 11 12.75V18.5C11 19.6935 10.5259 20.8381 9.68198 21.682C8.83807 22.5259 7.69347 23 6.5 23Z" fill="url(#paint3_radial_1140_10284)" fill-opacity="0.5"/>
<path d="M17.754 11C18.72 11 19.504 11.784 19.504 12.75V19.499C19.504 20.958 18.9244 22.3572 17.8927 23.3888C16.8611 24.4204 15.4619 25 14.003 25C12.544 25 11.1448 24.4204 10.1132 23.3888C9.08152 22.3572 8.50195 20.958 8.50195 19.499V12.75C8.50195 11.784 9.28495 11 10.252 11H17.754Z" fill="url(#paint4_linear_1140_10284)"/>
<path d="M17.754 11C18.72 11 19.504 11.784 19.504 12.75V19.499C19.504 20.958 18.9244 22.3572 17.8927 23.3888C16.8611 24.4204 15.4619 25 14.003 25C12.544 25 11.1448 24.4204 10.1132 23.3888C9.08152 22.3572 8.50195 20.958 8.50195 19.499V12.75C8.50195 11.784 9.28495 11 10.252 11H17.754Z" fill="url(#paint5_linear_1140_10284)"/>
<path d="M22.0031 4C22.397 4 22.7871 4.0776 23.1511 4.22836C23.5151 4.37913 23.8458 4.6001 24.1244 4.87868C24.4029 5.15726 24.6239 5.48797 24.7747 5.85195C24.9255 6.21593 25.0031 6.60603 25.0031 7C25.0031 7.39397 24.9255 7.78407 24.7747 8.14805C24.6239 8.51203 24.4029 8.84274 24.1244 9.12132C23.8458 9.3999 23.5151 9.62087 23.1511 9.77164C22.7871 9.9224 22.397 10 22.0031 10C21.2074 10 20.4443 9.68393 19.8817 9.12132C19.3191 8.55871 19.0031 7.79565 19.0031 7C19.0031 6.20435 19.3191 5.44129 19.8817 4.87868C20.4443 4.31607 21.2074 4 22.0031 4Z" fill="url(#paint6_linear_1140_10284)"/>
<path d="M5.99695 4C6.39091 4 6.78102 4.0776 7.145 4.22836C7.50898 4.37913 7.83969 4.6001 8.11827 4.87868C8.39684 5.15726 8.61782 5.48797 8.76859 5.85195C8.91935 6.21593 8.99695 6.60603 8.99695 7C8.99695 7.39397 8.91935 7.78407 8.76859 8.14805C8.61782 8.51203 8.39684 8.84274 8.11827 9.12132C7.83969 9.3999 7.50898 9.62087 7.145 9.77164C6.78102 9.9224 6.39091 10 5.99695 10C5.2013 10 4.43824 9.68393 3.87563 9.12132C3.31302 8.55871 2.99695 7.79565 2.99695 7C2.99695 6.20435 3.31302 5.44129 3.87563 4.87868C4.43824 4.31607 5.2013 4 5.99695 4Z" fill="url(#paint7_linear_1140_10284)"/>
<path d="M14 3C14.4596 3 14.9148 3.09053 15.3394 3.26642C15.764 3.44231 16.1499 3.70012 16.4749 4.02513C16.7999 4.35013 17.0577 4.73597 17.2336 5.16061C17.4095 5.58525 17.5 6.04037 17.5 6.5C17.5 6.95963 17.4095 7.41475 17.2336 7.83939C17.0577 8.26403 16.7999 8.64987 16.4749 8.97487C16.1499 9.29988 15.764 9.55769 15.3394 9.73358C14.9148 9.90947 14.4596 10 14 10C13.0717 10 12.1815 9.63125 11.5251 8.97487C10.8687 8.3185 10.5 7.42826 10.5 6.5C10.5 5.57174 10.8687 4.6815 11.5251 4.02513C12.1815 3.36875 13.0717 3 14 3Z" fill="url(#paint8_linear_1140_10284)"/>
<defs>
<linearGradient id="paint0_linear_1140_10284" x1="19.14" y1="12.595" x2="25.829" y2="20.605" gradientUnits="userSpaceOnUse">
<stop offset="0.125" stop-color="#7A41DC"/>
<stop offset="1" stop-color="#5B2AB5"/>
</linearGradient>
<radialGradient id="paint1_radial_1140_10284" cx="0" cy="0" r="1" gradientUnits="userSpaceOnUse" gradientTransform="translate(15.586 16.719) scale(7.24251 16.3823)">
<stop offset="0.433" stop-color="#3B148A"/>
<stop offset="1" stop-color="#3B148A" stop-opacity="0"/>
</radialGradient>
<linearGradient id="paint2_linear_1140_10284" x1="4.14" y1="12.595" x2="10.829" y2="20.605" gradientUnits="userSpaceOnUse">
<stop offset="0.125" stop-color="#9C6CFE"/>
<stop offset="1" stop-color="#7A41DC"/>
</linearGradient>
<radialGradient id="paint3_radial_1140_10284" cx="0" cy="0" r="1" gradientUnits="userSpaceOnUse" gradientTransform="translate(13.915 16.719) rotate(180) scale(8.01505 18.1297)">
<stop offset="0.433" stop-color="#3B148A"/>
<stop offset="1" stop-color="#3B148A" stop-opacity="0"/>
</radialGradient>
<linearGradient id="paint4_linear_1140_10284" x1="11.118" y1="12.861" x2="18.849" y2="22.562" gradientUnits="userSpaceOnUse">
<stop offset="0.125" stop-color="#BD96FF"/>
<stop offset="1" stop-color="#9C6CFE"/>
</linearGradient>
<linearGradient id="paint5_linear_1140_10284" x1="14.003" y1="9.333" x2="25.802" y2="26.659" gradientUnits="userSpaceOnUse">
<stop stop-color="#885EDB" stop-opacity="0"/>
<stop offset="1" stop-color="#E362F8"/>
</linearGradient>
<linearGradient id="paint6_linear_1140_10284" x1="20.4301" y1="4.798" x2="23.4881" y2="9.68" gradientUnits="userSpaceOnUse">
<stop offset="0.125" stop-color="#7A41DC"/>
<stop offset="1" stop-color="#5B2AB5"/>
</linearGradient>
<linearGradient id="paint7_linear_1140_10284" x1="4.42395" y1="4.798" x2="7.48195" y2="9.68" gradientUnits="userSpaceOnUse">
<stop offset="0.125" stop-color="#9C6CFE"/>
<stop offset="1" stop-color="#7A41DC"/>
</linearGradient>
<linearGradient id="paint8_linear_1140_10284" x1="12.165" y1="3.931" x2="15.732" y2="9.627" gradientUnits="userSpaceOnUse">
<stop offset="0.125" stop-color="#BD96FF"/>
<stop offset="1" stop-color="#9C6CFE"/>
</linearGradient>
</defs>
</svg>
